<?xml version="1.0" encoding="UTF-8" standalone="no"?>
<svg
   xmlns:dc="http://purl.org/dc/elements/1.1/"
   xmlns:cc="http://creativecommons.org/ns#"
   xmlns:rdf="http://www.w3.org/1999/02/22-rdf-syntax-ns#"
   xmlns:svg="http://www.w3.org/2000/svg"
   xmlns="http://www.w3.org/2000/svg"
   xmlns:sodipodi="http://sodipodi.sourceforge.net/DTD/sodipodi-0.dtd"
   xmlns:inkscape="http://www.inkscape.org/namespaces/inkscape"
   version="1.1"
   id="Layer_1"
   x="0px"
   y="0px"
   width="450px"
   height="300px"
   viewBox="0 0 450 300"
   enable-background="new 0 0 450 300"
   xml:space="preserve"
   sodipodi:docname="Ambassadors_ensign_of_Ukraine.svg"
   inkscape:version="0.92.3 (2405546, 2018-03-11)"><metadata
   id="metadata25"><rdf:RDF><cc:Work
       rdf:about=""><dc:format>image/svg+xml</dc:format><dc:type
         rdf:resource="http://purl.org/dc/dcmitype/StillImage" /></cc:Work></rdf:RDF></metadata><defs
   id="defs23" /><sodipodi:namedview
   pagecolor="#ffffff"
   bordercolor="#666666"
   borderopacity="1"
   objecttolerance="10"
   gridtolerance="10"
   guidetolerance="10"
   inkscape:pageopacity="0"
   inkscape:pageshadow="2"
   inkscape:window-width="1920"
   inkscape:window-height="1017"
   id="namedview21"
   showgrid="false"
   inkscape:zoom="1.7850518"
   inkscape:cx="133.96623"
   inkscape:cy="86.327724"
   inkscape:window-x="-8"
   inkscape:window-y="-8"
   inkscape:window-maximized="1"
   inkscape:current-layer="Layer_1" />
<g
   id="g6">
	<rect
   width="450"
   height="300"
   id="rect2"
   x="0"
   y="0"
   style="fill:#005bbb;fill-opacity:1" />
	<rect
   y="150"
   width="450"
   height="150"
   id="rect4"
   x="0"
   style="fill:#ffd500;fill-opacity:1" />
</g>
<ellipse
   fill="#FFFFFF"
   cx="228"
   cy="155.5"
   rx="66"
   ry="65.5"
   id="ellipse8" />
<g
   id="g18">
	<g
   id="g14">
		<path
   d="m 251.916,119.017 c -6.287,4.877 -10.555,12.372 -11.283,20.916 l -2.225,19.188 1,-0.109 c 2.115,0.012 4.016,1.559 4.445,3.785 0.494,2.547 -1.109,5.023 -3.574,5.535 l -2.742,0.566 c -0.93,-1.813 -1.863,-3.625 -2.723,-5.475 -2.566,-6.664 -4.68,-13.493 -4.539,-20.762 -0.25,0.014 -0.5,0.024 -0.754,0.024 h -1.895 c -0.641,0 -1.277,-0.051 -1.904,-0.148 0,0.002 0,0.004 0,0.005 0.17,7.313 -1.957,14.18 -4.537,20.881 -0.863,1.85 -1.793,3.662 -2.727,5.475 l -2.738,-0.566 c -2.465,-0.512 -4.07,-2.988 -3.576,-5.535 0.432,-2.227 2.33,-3.773 4.447,-3.785 l 0.996,0.109 -2.223,-19.188 c -0.729,-8.544 -4.996,-16.039 -11.281,-20.916 -1.082,-0.837 -2.227,-1.604 -3.418,-2.278 v 68.152 h 15.232 c 1.139,6.387 4.541,11.949 9.324,15.77 1.139,0.811 2.09,1.879 2.775,3.125 0.684,-1.246 1.641,-2.314 2.777,-3.125 4.783,-3.82 8.186,-9.383 9.324,-15.77 h 15.234 v -68.152 c -1.188,0.673 -2.335,1.441 -3.415,2.278 z m -46.695,7.537 c 2.949,3.574 4.93,8.026 5.518,12.921 l 1.834,15.826 c -2.334,1.199 -4.105,3.398 -4.77,6.063 h -2.582 z m 10.252,53.63 H 205.221 V 166.07 h 2.582 c 0.813,3.246 3.268,5.813 6.387,6.707 l 2.188,0.516 c -0.585,2.195 -0.905,4.508 -0.905,6.891 z m 10.25,14.613 c -2.514,-2.715 -4.34,-6.121 -5.178,-9.906 h 5.178 z m -5.694,-14.613 c 0,-2.016 0.287,-3.959 0.797,-5.805 2.766,0.402 4.896,2.84 4.896,5.805 z m 7.969,-6.633 c -1.277,-1.635 -3.01,-2.85 -5,-3.473 2.096,-3.65 3.777,-7.574 5,-11.709 1.225,4.135 2.906,8.059 5.002,11.709 -1.99,0.623 -3.725,1.838 -5.002,3.473 z m 2.277,21.246 v -9.906 h 5.18 c -0.838,3.785 -2.664,7.191 -5.18,9.906 z m 0,-14.613 c 0,-2.965 2.133,-5.402 4.896,-5.805 0.51,1.846 0.799,3.789 0.799,5.805 z m 20.5,0 h -10.25 c 0,-2.383 -0.32,-4.695 -0.906,-6.891 l 2.188,-0.516 c 3.121,-0.895 5.576,-3.461 6.389,-6.707 h 2.58 v 14.114 z m 0,-18.821 h -2.58 c -0.664,-2.664 -2.436,-4.863 -4.768,-6.063 l 1.832,-15.826 c 0.59,-4.895 2.57,-9.347 5.516,-12.921 z"
   id="path10"
   inkscape:connector-curvature="0"
   style="fill:#c39c29;fill-opacity:1" />
		<line
   x1="227.998"
   y1="144.492"
   x2="227.998"
   y2="108.953"
   id="line12"
   style="fill:none;stroke:#c39c29;stroke-width:4.5999999;stroke-opacity:1" />
	</g>
	<line
   x1="222.166"
   y1="115.12"
   x2="233.832"
   y2="115.12"
   id="line16"
   style="fill:none;stroke:#c39c29;stroke-width:4.5999999;stroke-opacity:1" />
</g>
</svg>